<svg width="24" height="24" viewBox="0 0 24 24" fill="none" xmlns="http://www.w3.org/2000/svg">
<path d="M10.8026 2.92742C11.1402 2.65087 11.5632 2.49976 11.9996 2.49976C12.436 2.49976 12.859 2.65087 13.1966 2.92742L19.7841 8.29842C20.0083 8.48219 20.1887 8.7135 20.3125 8.97561C20.4362 9.23772 20.5001 9.52407 20.4996 9.81392V19.5564C20.4996 20.6299 19.6436 21.4999 18.5871 21.4999H16.0371C14.9806 21.4999 14.1246 20.6299 14.1246 19.5564V14.8749C14.1246 14.5174 13.8396 14.2274 13.4871 14.2274H10.5121C10.1601 14.2274 9.87461 14.5174 9.87461 14.8749V19.5569C9.87461 20.6304 9.01861 21.5004 7.96211 21.5004H5.41211C4.35611 21.4999 3.49961 20.6299 3.49961 19.5564V9.81392C3.49906 9.52407 3.56298 9.23772 3.68673 8.97561C3.81048 8.7135 3.99096 8.48219 4.21511 8.29842L10.8026 2.92742Z" fill="white"/>
</svg>
