<svg width="15" height="20" viewBox="0 0 15 20" fill="none" xmlns="http://www.w3.org/2000/svg">
<path d="M8.75 16.1328V17.5H11.25C11.5885 17.5 11.8815 17.6204 12.1289 17.8613C12.3763 18.1022 12.5 18.3952 12.5 18.7402C12.5 19.0853 12.3796 19.3815 12.1387 19.6289C11.8978 19.8763 11.6016 20 11.25 20H3.75C3.39844 20 3.10221 19.8763 2.86133 19.6289C2.62044 19.3815 2.5 19.0853 2.5 18.7402C2.5 18.3952 2.62044 18.1022 2.86133 17.8613C3.10221 17.6204 3.39844 17.5 3.75 17.5H6.25V16.1328C4.46615 15.8333 2.97852 14.9902 1.78711 13.6035C0.595703 12.2168 0 10.599 0 8.75C0 8.41146 0.120443 8.11849 0.361328 7.87109C0.602214 7.6237 0.898438 7.5 1.25 7.5C1.60156 7.5 1.89779 7.6237 2.13867 7.87109C2.37956 8.11849 2.5 8.41146 2.5 8.75C2.5 10.1302 2.98828 11.3086 3.96484 12.2852C4.94141 13.2617 6.11979 13.75 7.5 13.75C8.88021 13.75 10.0586 13.2617 11.0352 12.2852C12.0117 11.3086 12.5 10.1302 12.5 8.75C12.5 8.41146 12.6237 8.11849 12.8711 7.87109C13.1185 7.6237 13.4147 7.5 13.7598 7.5C14.1048 7.5 14.3978 7.6237 14.6387 7.87109C14.8796 8.11849 15 8.41146 15 8.75C15 10.599 14.4043 12.2168 13.2129 13.6035C12.0215 14.9902 10.5339 15.8333 8.75 16.1328ZM7.5 12.5C6.45833 12.5 5.57292 12.1354 4.84375 11.4062C4.11458 10.6771 3.75 9.79167 3.75 8.75V3.75C3.75 2.70833 4.11458 1.82292 4.84375 1.09375C5.57292 0.364583 6.45833 0 7.5 0C8.54167 0 9.42708 0.364583 10.1562 1.09375C10.8854 1.82292 11.25 2.70833 11.25 3.75V8.75C11.25 9.79167 10.8854 10.6771 10.1562 11.4062C9.42708 12.1354 8.54167 12.5 7.5 12.5Z" fill="#0E3C6E"/>
</svg>
