<svg width="17" height="21" viewBox="0 0 17 21" fill="none" xmlns="http://www.w3.org/2000/svg">
<path d="M8 21C7.46957 21 6.96086 20.7893 6.58579 20.4142C6.21071 20.0391 6 19.5304 6 19H10C10 19.5304 9.78929 20.0391 9.41421 20.4142C9.03914 20.7893 8.53043 21 8 21ZM16 18H0V16L2 15V9.5C1.94732 8.08912 2.26594 6.68913 2.924 5.44C3.24784 4.86727 3.68943 4.36971 4.21965 3.98015C4.74987 3.59059 5.35666 3.31788 6 3.18V1H9.646C9.01249 1.70801 8.61931 2.59836 8.52279 3.54351C8.42627 4.48865 8.63137 5.4401 9.10869 6.26155C9.58602 7.08299 10.3111 7.73229 11.18 8.11643C12.049 8.50057 13.0172 8.59983 13.946 8.4C13.981 8.757 13.998 9.127 13.998 9.5V15L15.998 16V18H16ZM13 7C12.606 6.99935 12.2161 6.9211 11.8523 6.76973C11.4886 6.61836 11.1583 6.39683 10.8801 6.11779C10.602 5.83875 10.3816 5.50766 10.2314 5.14344C10.0813 4.77921 10.0043 4.38897 10.005 3.995C10.0057 3.60104 10.0839 3.21106 10.2353 2.84733C10.3866 2.48361 10.6082 2.15326 10.8872 1.87515C11.1663 1.59704 11.4973 1.37661 11.8616 1.22645C12.2258 1.07629 12.616 0.999348 13.01 1C13.8056 1.00133 14.5682 1.31867 15.1299 1.88222C15.6915 2.44577 16.0063 3.20935 16.005 4.005C16.0037 4.80065 15.6863 5.56319 15.1228 6.12486C14.5592 6.68653 13.7956 7.00133 13 7Z" fill="white"/>
<circle cx="13" cy="4" r="4" fill="#FD0000"/>
</svg>
